PathFileType	4	(X/Y/Z)	C:\Users\WrightLab\Desktop\Jo\P2_Trial17.trc
DataRate	CameraRate	NumFrames	NumMarkers	Units	OrigDataRate	OrigDataStartFrame	OrigNumFrames
100.00	100.00	      28	19	mm	100.00	904	      1033
Frame#	Time	Headset_Front			Headset_Back			Headset_Left			Headset_Right			Left_Shoulder			Right_Shoulder			Sternum			C7			Left Elbow			Right Elbow			Left Wrist			Right Wrist			Left ASIS			Right ASIS			S2			Left Knee			Right Knee			Left Ankle			Right Ankle			
		X1	Y1	Z1	X2	Y2	Z2	X3	Y3	Z3	X4	Y4	Z4	X5	Y5	Z5	X6	Y6	Z6	X7	Y7	Z7	X8	Y8	Z8	X9	Y9	Z9	X10	Y10	Z10	X11	Y11	Z11	X12	Y12	Z12	X13	Y13	Z13	X14	Y14	Z14	X15	Y15	Z15	X16	Y16	Z16	X17	Y17	Z17	X18	Y18	Z18	X19	Y19	Z19	

904	9.030							-703.31976	1564.34741	-951.45654				-783.95715	1410.55249	-846.54395	-462.59143	1407.01782	-789.03369	-608.22791	1292.34656	-884.91376	-627.67969	1399.97412	-707.57104	-879.18085	1026.88770	-1002.74927	-303.98648	839.30090	-780.89655	-888.34924	1087.31763	-842.60944	-358.94446	1086.06836	-739.29657							-681.04407	907.38293	-672.60681	-727.97717	428.54907	-951.54889	-485.21283	492.61301	-702.52301	-652.56476	890.01825	-657.72748	-556.83075	186.32547	-522.70270	
905	9.040							-701.53558	1565.30518	-960.35583				-781.43109	1412.26453	-857.08533	-460.48862	1408.85327	-798.37592	-605.36029	1293.89099	-893.74579	-625.83014	1402.24329	-716.59839	-633.97156	1006.15198	-935.59882	-305.65460	838.32538	-778.40594	-886.29248	1088.54285	-856.08130	-359.03574	1086.81360	-742.36224							-679.84900	910.01868	-678.28455	-730.53577	428.75140	-961.26074	-483.41296	492.89063	-718.08600				-548.91864	193.71858	-541.51019	
906	9.050	-523.76941	1480.92554	-1052.13660				-699.38446	1567.10889	-969.27032				-779.13995	1413.64905	-867.00879	-459.08157	1410.59119	-804.43793	-602.63788	1294.98999	-902.64795	-625.58081	1404.55591	-726.07977	-631.87146	1007.12299	-943.28656	-307.37686	838.40491	-775.10931	-884.14142	1090.07483	-869.64569	-359.11636	1087.32751	-747.28180	-870.03503	1028.42651	-1028.54919				-678.87976	911.87726	-685.73566	-732.43347	430.25827	-972.06738	-481.79199	494.33096	-737.09467				-541.39642	201.00206	-561.77820	
907	9.060	-521.04913	1483.23376	-1059.69653				-697.26001	1568.36414	-977.72156				-776.03998	1415.29004	-877.37823	-456.24353	1411.32849	-813.03925	-599.77991	1296.19922	-910.77905	-624.57544	1406.19629	-734.66064				-308.88901	837.83667	-772.17871				-358.95724	1088.41870	-750.60376							-678.05084	912.92969	-693.38757	-733.13513	431.63556	-982.51068	-477.77136	496.65866	-756.77356				-533.53644	206.94662	-582.84564	
908	9.070	-518.37085	1485.58765	-1068.44934				-695.11993	1569.70642	-985.96606				-773.89594	1416.89185	-887.51343	-453.80377	1412.76538	-821.13788	-596.98297	1297.41101	-918.90009	-622.02142	1407.76941	-743.04236	-879.85541	1093.15576	-894.91205	-310.31494	838.52289	-769.05420	-859.99115	1031.38855	-1053.94678	-358.97906	1089.14063	-753.83801							-676.73981	914.59741	-700.07861	-732.50140	433.31012	-991.85590	-473.68671	499.91537	-777.02307				-526.52405	212.34940	-604.57269	
909	9.080	-515.29517	1488.60425	-1076.47754				-692.77625	1571.33655	-994.78656				-770.77155	1418.48096	-897.65973	-451.88223	1413.64929	-826.65021	-594.18945	1298.65149	-927.42688	-621.75897	1409.45068	-752.17535	-877.59174	1094.63208	-907.32275	-312.10358	838.66730	-764.79144	-854.79926	1033.24255	-1067.49536	-358.37231	1090.45435	-756.96143	-625.41321	1010.83209	-965.46002				-674.84534	916.84454	-708.03735	-731.17816	434.89145	-1001.25153	-468.38052	503.08954	-798.05634				-518.79437	217.27945	-625.16321	
910	9.090							-690.33252	1573.15369	-1002.82666				-768.56952	1420.03723	-907.37738	-449.78964	1415.73889	-836.67078	-591.47437	1299.99939	-935.32263	-621.03546	1411.73083	-760.75409	-875.11310	1096.62195	-920.53198	-313.83789	840.37964	-763.36456	-849.36639	1035.49780	-1080.01160	-358.30634	1092.51526	-759.91772	-623.33459	1012.23907	-973.02679				-673.72461	918.97906	-716.34253	-729.15564	436.86917	-1009.38165	-462.34995	507.14557	-819.53058				-510.60593	222.20752	-646.99664	
911	9.100							-687.99414	1574.59949	-1010.61676				-765.21631	1421.87488	-917.43835	-447.49924	1415.96118	-842.54211	-588.67010	1301.14478	-942.82349	-619.75665	1413.09827	-769.08575	-872.45929	1098.63574	-933.32727	-315.05164	841.88184	-761.23071	-843.83582	1037.60754	-1092.38208	-358.09354	1094.21619	-762.96252							-671.64514	920.01935	-722.32446				-455.83014	511.52609	-839.72113				-502.86478	226.67325	-670.01154	
912	9.110							-685.57672	1576.04895	-1018.38074				-762.83185	1423.16663	-926.42670	-445.31293	1417.49329	-849.45233	-585.84503	1302.33826	-950.19800	-618.92188	1414.94189	-777.27087	-869.65015	1100.48035	-945.69189	-316.38864	843.87396	-759.87372	-838.50403	1039.91724	-1104.69226	-357.65942	1095.11646	-764.14899	-621.80841	1016.35889	-990.68262				-670.97589	921.98352	-730.05493				-448.23132	516.03986	-861.31378				-496.56860	229.23656	-692.40405	
913	9.120													-759.65973	1424.88647	-936.92419	-443.26108	1418.23816	-854.94678	-583.18695	1303.41821	-958.02289	-616.08167	1416.27893	-785.27448	-866.74792	1102.29712	-958.32050	-317.46320	845.54510	-758.79095	-832.70996	1042.76355	-1117.12329	-358.31326	1097.06335	-765.62384							-668.15460	923.09229	-737.01996				-440.71698	521.76019	-881.39258				-488.85339	231.65273	-714.22614	
914	9.130													-757.04993	1425.96741	-946.08710	-441.28616	1420.24915	-862.29077	-580.31067	1304.55750	-965.16492	-615.50494	1417.11926	-793.21295	-863.52991	1104.17395	-970.77637	-318.60181	847.13068	-758.42139	-827.16187	1045.25085	-1129.04773	-357.17905	1099.17456	-768.91541							-665.69397	924.54608	-743.81665				-431.60657	528.31396	-902.05524				-481.21051	232.75124	-736.45746	
915	9.140													-754.21472	1427.38965	-955.50177	-439.05807	1420.43079	-867.94269	-577.37445	1305.69287	-972.89825	-613.12958	1417.89233	-801.20483	-860.36017	1105.45203	-982.11438	-319.83713	848.32672	-757.66577				-356.90366	1100.51819	-771.11194							-663.58325	925.79840	-750.79468				-422.89178	534.44061	-920.24091				-474.40192	234.22348	-757.03326	
916	9.150	-613.61194	1020.32867	-1019.79187	-793.88818	-69.21671	-208.20886							-751.38184	1428.67419	-965.33246	-437.30405	1422.42310	-873.93231	-574.51813	1306.71216	-980.74329	-612.56036	1418.76514	-809.46722	-857.01599	1107.15735	-994.73444	-320.45816	849.87299	-757.16278				-357.24951	1101.32458	-773.24890	-498.34653	998.01849	-973.89520				-660.99329	926.40680	-758.10114				-413.99527	540.41766	-938.43750				-466.85440	233.04544	-779.52985	
917	9.160	-608.47076	1020.47992	-1024.72998	-793.29352	-73.57497	-215.27428							-748.48712	1429.44666	-974.08252	-435.02005	1422.59253	-880.48236	-571.51221	1307.61475	-988.29376				-853.62109	1108.27234	-1006.11737	-321.20819	851.63416	-756.77435				-356.61218	1103.42407	-775.48572	-495.60370	999.50714	-980.72949				-659.04956	926.93982	-763.91089				-405.30710	547.36530	-955.58020				-461.37955	230.54268	-800.67603	
918	9.170	-606.04993	1020.83435	-1032.24585										-745.25177	1430.43677	-983.58142	-432.93961	1423.24854	-886.89526	-568.55682	1308.15405	-995.25537				-850.05768	1109.64990	-1018.13232	-322.67810	852.59161	-757.84760				-356.10587	1104.85425	-777.67316	-493.56281	999.85065	-987.59253				-656.05963	928.38464	-771.23230				-397.27231	553.35242	-970.63336				-455.07477	227.36060	-821.77618	
919	9.180	-606.69141	1020.87897	-1041.70984										-742.74854	1431.08362	-992.65747	-431.08002	1424.41382	-893.67584	-565.50208	1308.97595	-1002.87628				-846.40063	1110.46704	-1029.23486	-323.51096	854.29620	-757.91473				-355.87466	1106.69482	-779.90363	-490.67072	999.17725	-994.79102				-654.35547	929.09296	-778.14716				-392.88718	556.96490	-988.54462				-448.25095	222.73149	-843.00854	
920	9.190	-601.15399	1019.45398	-1045.87415										-739.53308	1431.10046	-1001.24432	-428.54648	1424.13086	-899.39178	-562.44501	1309.37451	-1009.79987				-842.67786	1111.14990	-1040.62158	-323.92593	855.01672	-758.52539				-356.00626	1107.44836	-781.97601	-488.03317	999.39172	-1001.79688				-651.64819	930.18512	-785.38086				-386.95975	563.02533	-1000.18665				-442.98141	218.50223	-863.08478	
921	9.200	-600.89484	1019.98090	-1056.56445										-736.85693	1431.72864	-1010.35162	-426.62848	1425.04980	-907.18304	-559.41785	1309.67236	-1017.00079				-838.76953	1111.92896	-1052.21094	-324.44238	856.20544	-759.46783				-356.84979	1107.53320	-786.16626	-486.40424	999.63641	-1006.58301				-648.38818	930.00195	-792.23560				-381.25171	568.29852	-1009.81714				-437.32947	212.24449	-883.45947	
922	9.210	-595.19257	1018.95410	-1061.17786										-733.50909	1431.80115	-1019.16266	-424.25061	1425.17102	-913.15521	-556.34125	1309.84863	-1024.60266				-834.89813	1112.17236	-1063.22803	-325.16159	857.05072	-760.13666				-356.66891	1108.68079	-789.44989	-483.59839	998.86755	-1012.63257				-646.53748	930.67023	-799.60419				-376.24808	572.50684	-1021.18494				-431.31534	205.95412	-902.03479	
923	9.220	-592.02893	1018.30267	-1068.26648										-730.25836	1431.15771	-1027.52954	-422.21872	1424.36926	-916.83435	-553.12250	1309.92236	-1031.43323				-830.93317	1112.20850	-1074.25623	-325.69952	857.77887	-760.85278				-354.74606	1111.02429	-792.68365	-479.55212	999.37817	-1020.59271				-644.03522	931.14081	-805.87177				-371.02051	575.77972	-1029.48718				-424.48709	198.06668	-923.22559	
924	9.230	-591.32404	1018.26294	-1078.06873	-601.55151	1422.01416	-871.73633							-727.92432	1431.86475	-1036.37439	-420.11880	1424.52747	-922.44153	-549.89471	1309.87000	-1039.15613				-826.80359	1112.51648	-1085.63806	-326.06808	859.01862	-762.82794				-353.39963	1111.16296	-795.45654	-476.44827	998.32855	-1027.13721				-641.66589	931.68250	-813.55145	-353.87051	1106.44495	-825.73181	-365.51532	578.05481	-1035.02417				-421.25146	189.02910	-943.08295	
925	9.240	-587.77856	1017.99017	-1085.38196	-598.25995	1421.17444	-878.80450							-724.78748	1430.87781	-1044.24817	-417.91946	1425.68042	-930.71594	-546.41736	1310.11670	-1046.66638				-822.50568	1112.44617	-1096.91589	-326.36508	859.47528	-764.83575				-356.18784	1110.94312	-800.52881	-473.38431	998.84241	-1034.34631				-638.98596	931.44971	-820.74158				-361.06015	580.21625	-1042.66174				-415.55179	179.91783	-962.41547	
926	9.250	-581.33417	1017.59839	-1090.23413	-598.26337	1421.15369	-885.89667							-721.77045	1430.27441	-1052.03479	-414.97244	1424.48706	-935.30542	-542.81744	1310.03992	-1053.13232				-818.30847	1111.86707	-1106.98926	-326.52838	859.83850	-766.28650				-356.13776	1111.53394	-803.94727	-469.80774	997.74219	-1040.82520				-636.06732	931.18195	-827.99438				-357.07727	579.57129	-1046.88965				-410.13159	169.62312	-981.75049	
927	9.260	-580.40546	1017.55701	-1099.70605	-595.17902	1420.48828	-893.45642							-718.02454	1429.94214	-1060.31726	-412.63919	1424.24072	-941.20068	-539.25854	1310.03955	-1061.05566				-813.83337	1111.83484	-1118.00867	-326.26263	860.60651	-769.24719				-355.78564	1110.88562	-808.13074	-466.34268	998.05579	-1047.20569				-634.00684	930.78802	-834.63489				-355.97952	578.45532	-1052.10291				-406.80206	158.64433	-1002.81030	
928	9.270	-575.92920	1017.52545	-1107.82031	-593.61127	1420.50793	-901.13660							-714.98767	1429.20361	-1068.38416	-409.92401	1424.24170	-948.69739	-535.63422	1309.83240	-1068.35632				-809.28986	1111.46936	-1128.77844	-326.68347	861.22351	-771.68689				-355.64734	1111.49878	-811.36066	-462.49918	997.22845	-1053.99268				-631.63312	930.00391	-841.76959				-352.47662	575.22577	-1055.31970				-397.41129	152.15677	-1018.74170	
929	9.280	-571.79602	1017.65131	-1115.10547	-590.71979	1419.78687	-907.20764							-711.57129	1428.10803	-1076.13867	-406.84598	1423.92493	-953.15656	-531.98364	1309.38110	-1075.19482				-804.73083	1110.78235	-1138.94910	-326.30383	861.24652	-774.63513				-357.84729	1107.78845	-831.28577	-458.85245	997.62427	-1060.78711				-628.79510	929.69794	-849.94891				-352.35330	569.76459	-1057.06750				-400.78049	137.42981	-1046.80627	
930	9.290				-587.29260	1418.83350	-914.44183							-708.35895	1427.15613	-1083.40295	-404.70541	1423.33337	-958.70587										-326.42133	861.80768	-777.98053				-356.93076	1108.57129	-837.15967	-454.86853	996.46759	-1066.97437				-626.41815	928.79065	-857.15869				-353.33081	562.76379	-1056.66406				-403.62503	122.57385	-1061.57007	
931	9.300				-585.04529	1418.01099	-921.30719							-704.83759	1426.34912	-1091.12000	-401.71982	1422.69946	-965.48682										-325.53754	861.53033	-781.22809				-355.38922	1108.54041	-841.64362	-450.83960	995.94849	-1074.63806				-623.92010	928.47211	-865.58893				-354.67984	554.09985	-1057.27502				-391.15817	119.40058	-1088.10571	
